<svg xmlns="http://www.w3.org/2000/svg" viewBox="0 0 432.63 466.73"><defs><style>.cls-1{fill:none;stroke:#000;stroke-miterlimit:10;stroke-width:3px;}.cls-2{font-size:38.9px;}.cls-2,.cls-5{font-family:Montserrat-Bold, Montserrat;font-weight:700;}.cls-3{letter-spacing:-0.01em;}.cls-4{letter-spacing:0em;}.cls-5{font-size:68.89px;}</style></defs><title>finalscore</title><g id="finalscore_graphic"><path d="M223.69,116.89a183,183,0,0,1,130,53.93,183.44,183.44,0,0,1-260,0,183,183,0,0,1,130-53.93m0-3A186,186,0,0,0,89.49,170.82a186.62,186.62,0,0,0,268.39,0,186,186,0,0,0-134.2-56.93Z"/><path d="M224.62,79.62a91.2,91.2,0,1,1-91.2,91.2,91.3,91.3,0,0,1,91.2-91.2m0-4a95.2,95.2,0,1,0,95.2,95.2,95.2,95.2,0,0,0-95.2-95.2Z"/><line class="cls-1" x1="147.16" y1="222.15" x2="225.47" y2="333.5"/><line class="cls-1" x1="301.88" y1="221.7" x2="224.44" y2="332.03"/><text class="cls-2" transform="translate(86.36 373.25)">FINAL S<tspan class="cls-3" x="158.16" y="0">C</tspan><tspan class="cls-4" x="186.09" y="0">ORE</tspan></text><rect x="89.49" y="331.42" width="268.39" height="4.15"/></g><g id="finalscore_number"><text class="cls-5" transform="translate(180.07 194.74)">50</text></g></svg>